<?xml version="1.0" encoding="UTF-8" standalone="no"?>
<svg
   xmlns:dc="http://purl.org/dc/elements/1.1/"
   xmlns:cc="http://creativecommons.org/ns#"
   xmlns:rdf="http://www.w3.org/1999/02/22-rdf-syntax-ns#"
   xmlns:svg="http://www.w3.org/2000/svg"
   xmlns="http://www.w3.org/2000/svg"
   xmlns:sodipodi="http://sodipodi.sourceforge.net/DTD/sodipodi-0.dtd"
   xmlns:inkscape="http://www.inkscape.org/namespaces/inkscape"
   height="100px"
   width="100px"
   fill="#CC0000"
   version="1.1"
   x="0px"
   y="0px"
   viewBox="0 0 100 100"
   enable-background="new 0 0 100 100"
   xml:space="preserve"
   id="svg8"
   sodipodi:docname="tomato.svg"
   inkscape:version="0.92.3 (2405546, 2018-03-11)"><metadata
     id="metadata14"><rdf:RDF><cc:Work
         rdf:about=""><dc:format>image/svg+xml</dc:format><dc:type
           rdf:resource="http://purl.org/dc/dcmitype/StillImage" /></cc:Work></rdf:RDF></metadata><defs
     id="defs12" /><sodipodi:namedview
     pagecolor="#ffffff"
     bordercolor="#666666"
     borderopacity="1"
     objecttolerance="10"
     gridtolerance="10"
     guidetolerance="10"
     inkscape:pageopacity="0"
     inkscape:pageshadow="2"
     inkscape:window-width="1920"
     inkscape:window-height="1056"
     id="namedview10"
     showgrid="false"
     inkscape:zoom="6.675088"
     inkscape:cx="4.0245694"
     inkscape:cy="39.661668"
     inkscape:window-x="0"
     inkscape:window-y="24"
     inkscape:window-maximized="1"
     inkscape:current-layer="g6" /><g
     id="g6"><path
       d="m 28.24196,23.241215 c 0.411003,0.169332 0.874049,0.360798 1.359783,0.563333 l 3.063843,1.246191 c -0.473721,0.544517 -0.832682,1.059151 -2.277867,2.573175 -2.853006,2.988201 -8.109316,8.493134 -7.805066,12.325781 1.37713,-0.223563 4.677169,-1.869287 6.933685,-2.997058 4.195441,-2.095061 8.157355,-4.073916 11.070411,-4.073916 0.01062,0 0.01868,0 0.02802,0 4.4303,0.02102 6.326521,4.656064 7.999894,8.745472 0.520426,1.269432 1.250358,3.059033 1.854854,3.910118 0.386984,-1.112276 0.59916,-3.395482 0.739273,-4.871876 0.213508,-2.2821 0.416341,-4.439141 1.035517,-5.864624 1.537259,-3.519438 10.034893,-1.886993 21.872602,0.803497 0.932763,0.212493 1.809482,0.411707 2.588789,0.582143 -1.778793,-1.899166 -4.998767,-4.788869 -6.984395,-6.570724 -2.271195,-2.038618 -4.094024,-3.944427 -4.905355,-4.906185 0.680556,-0.368544 1.439847,-0.757011 2.056352,-1.072432 3.466843,-1.768574 5.452471,-2.835472 5.952883,-4.202298 0.19883,-0.548944 0.101414,-1.136624 -0.266887,-1.612523 -0.673879,-0.866577 -1.94292,-1.006027 -2.361931,-1.052511 -4.086016,-0.449336 -17.152731,1.579319 -22.378349,2.955 0.544444,-5.317894 2.63149,-8.996702 -1.098235,-13.2908587 -2.607471,-3.0003766 -5.61794,0.1095669 -3.76175,2.2466855 2.580782,2.9693862 0.879387,5.4960782 0.168136,11.3750882 -0.234859,-0.08412 -0.489734,-0.177078 -0.760624,-0.276684 -1.585299,-0.582146 -3.74974,-1.377894 -7.159204,-2.238938 -2.163104,-0.546731 -4.19277,-0.926344 -6.028942,-1.128877 -4.745224,-0.521276 -6.884314,0.284433 -7.26329,0.45155 l -0.561795,0.246805 -0.290904,0.468149 c -0.286902,0.462619 -0.334941,0.997175 -0.134777,1.502957 0.492406,1.253938 2.293881,2.090635 7.315331,4.16356 z"
       id="path2"
       inkscape:connector-curvature="0"
       style="fill:#008000;stroke-width:1.21526372" /><path
       d="m 70.839556,26.488395 c 0.407001,0.41503 0.84069,0.840019 1.310407,1.261686 8.039928,7.212636 9.920136,9.236864 8.848591,10.808438 -0.228187,0.334235 -0.936767,1.082394 -2.63683,0.79132 -1.200984,-0.205853 -3.019808,-0.619775 -5.1242,-1.097886 -3.414801,-0.776934 -7.662284,-1.742012 -11.311943,-2.289849 -5.173577,-0.776932 -6.397246,-0.283326 -6.590739,-0.175971 -0.453704,1.089033 -0.643195,3.122118 -0.827342,5.089902 -0.376312,4.016367 -0.695239,6.524243 -2.451345,7.464974 -0.421681,0.225774 -0.894067,0.341983 -1.385135,0.341983 -0.316261,0 -0.639193,-0.0476 -0.958122,-0.144984 -2.017653,-0.602068 -2.997122,-2.998162 -4.236805,-6.030635 -1.186308,-2.899662 -2.81164,-6.870651 -4.880002,-6.880613 -0.004,0 -0.0093,0 -0.01335,0 -1.98963,0 -6.075646,2.040833 -9.359673,3.681023 -5.193593,2.593095 -8.23342,4.018577 -10.353824,3.165282 -0.497747,-0.200321 -1.362456,-0.716062 -1.543938,-1.913558 -0.725926,-4.787763 4.569083,-10.551672 8.043932,-14.2006 C 14.073006,31.183194 5.0282552,40.417845 3.0759872,51.214109 1.7722524,58.42785 4.0100877,67.862823 7.6877692,72.762368 12.068696,78.596003 19.408048,83.176806 30.307652,86.332126 35.525264,87.84172 42.595061,89.49962 49.243179,90.223429 75.594121,93.094317 95.710617,80.072395 98.643689,61.721514 100.98428,47.082643 89.404113,32.990503 70.839556,26.488395 Z m 20.94651,34.452866 c -0.439027,1.821697 -1.490556,5.459556 -3.594948,9.339791 -3.588275,6.614996 -11.469405,9.757034 -13.057374,9.583276 0,0 0,0 -0.0012,0 -0.137445,-0.0166 -0.265551,-0.04427 -0.386983,-0.09075 -0.405666,-0.151624 -0.676557,-0.458191 -0.723259,-0.821203 -0.08407,-0.66515 0.416341,-0.972825 1.626667,-1.716555 2.108395,-1.293781 6.498661,-3.987591 8.895294,-8.405702 1.973617,-3.638966 3.214634,-7.381967 4.037977,-9.857748 0.967461,-2.914049 1.258365,-3.791696 2.55543,-3.650034 l 0.172138,0.01993 0.182818,0.06418 c 0.59649,0.224669 1.497229,0.560011 0.293574,5.534816 z"
       id="path4"
       inkscape:connector-curvature="0"
       style="stroke-width:1.21526372" /></g></svg>